<mxfile host="app.diagrams.net" modified="2023-05-09T09:55:50.871Z" agent="Mozilla/5.0 (Macintosh; Intel Mac OS X 10_15_7) AppleWebKit/605.1.15 (KHTML, like Gecko) Version/15.6 Safari/605.1.15" etag="ld7m2zRV6vSSWquqrfJj" version="21.2.9" type="device">
  <diagram name="Page-1" id="fpCafDsEavGC-xrRwioX">
    <mxGraphModel dx="1665" dy="605" grid="1" gridSize="10" guides="1" tooltips="1" connect="1" arrows="1" fold="1" page="1" pageScale="1" pageWidth="827" pageHeight="1169" math="0" shadow="0">
      <root>
        <mxCell id="WIyWlLk6GJQsqaUBKTNV-0" />
        <mxCell id="WIyWlLk6GJQsqaUBKTNV-1" parent="WIyWlLk6GJQsqaUBKTNV-0" />
        <mxCell id="K59HT-jmwObpSRSA2hH1-0" value=":endedRecruit UI" style="rounded=0;whiteSpace=wrap;html=1;" parent="WIyWlLk6GJQsqaUBKTNV-1" vertex="1">
          <mxGeometry x="160" y="200" width="120" height="60" as="geometry" />
        </mxCell>
        <mxCell id="K59HT-jmwObpSRSA2hH1-3" value=":endedRecruit" style="rounded=0;whiteSpace=wrap;html=1;" parent="WIyWlLk6GJQsqaUBKTNV-1" vertex="1">
          <mxGeometry x="385" y="200" width="120" height="60" as="geometry" />
        </mxCell>
        <mxCell id="K59HT-jmwObpSRSA2hH1-6" value="CompanyMember" style="shape=umlActor;verticalLabelPosition=bottom;verticalAlign=top;html=1;outlineConnect=0;" parent="WIyWlLk6GJQsqaUBKTNV-1" vertex="1">
          <mxGeometry x="30" y="200" width="30" height="60" as="geometry" />
        </mxCell>
        <mxCell id="K59HT-jmwObpSRSA2hH1-18" value="" style="endArrow=classic;html=1;rounded=0;" parent="WIyWlLk6GJQsqaUBKTNV-1" edge="1">
          <mxGeometry width="50" height="50" relative="1" as="geometry">
            <mxPoint x="370" y="250" as="sourcePoint" />
            <mxPoint x="300" y="250" as="targetPoint" />
          </mxGeometry>
        </mxCell>
        <mxCell id="K59HT-jmwObpSRSA2hH1-21" value="" style="endArrow=none;html=1;rounded=0;entryX=0;entryY=0.5;entryDx=0;entryDy=0;exitX=0.5;exitY=0.5;exitDx=0;exitDy=0;exitPerimeter=0;" parent="WIyWlLk6GJQsqaUBKTNV-1" source="K59HT-jmwObpSRSA2hH1-6" target="K59HT-jmwObpSRSA2hH1-0" edge="1">
          <mxGeometry width="50" height="50" relative="1" as="geometry">
            <mxPoint x="90" y="260" as="sourcePoint" />
            <mxPoint x="140" y="210" as="targetPoint" />
          </mxGeometry>
        </mxCell>
        <mxCell id="K59HT-jmwObpSRSA2hH1-22" value="" style="endArrow=none;html=1;rounded=0;entryX=0;entryY=0.5;entryDx=0;entryDy=0;exitX=1;exitY=0.5;exitDx=0;exitDy=0;" parent="WIyWlLk6GJQsqaUBKTNV-1" source="K59HT-jmwObpSRSA2hH1-0" target="K59HT-jmwObpSRSA2hH1-3" edge="1">
          <mxGeometry width="50" height="50" relative="1" as="geometry">
            <mxPoint x="250" y="440" as="sourcePoint" />
            <mxPoint x="300" y="390" as="targetPoint" />
          </mxGeometry>
        </mxCell>
        <mxCell id="K59HT-jmwObpSRSA2hH1-32" value=":CompanyMember" style="rounded=0;whiteSpace=wrap;html=1;" parent="WIyWlLk6GJQsqaUBKTNV-1" vertex="1">
          <mxGeometry x="385" y="395" width="120" height="60" as="geometry" />
        </mxCell>
        <mxCell id="K59HT-jmwObpSRSA2hH1-33" value="" style="endArrow=none;html=1;rounded=0;entryX=0.5;entryY=0;entryDx=0;entryDy=0;exitX=0.5;exitY=1;exitDx=0;exitDy=0;" parent="WIyWlLk6GJQsqaUBKTNV-1" source="K59HT-jmwObpSRSA2hH1-3" target="K59HT-jmwObpSRSA2hH1-32" edge="1">
          <mxGeometry width="50" height="50" relative="1" as="geometry">
            <mxPoint x="330" y="450" as="sourcePoint" />
            <mxPoint x="380" y="400" as="targetPoint" />
          </mxGeometry>
        </mxCell>
        <mxCell id="K59HT-jmwObpSRSA2hH1-34" value="" style="endArrow=classic;html=1;rounded=0;" parent="WIyWlLk6GJQsqaUBKTNV-1" edge="1">
          <mxGeometry width="50" height="50" relative="1" as="geometry">
            <mxPoint x="430" y="290" as="sourcePoint" />
            <mxPoint x="430" y="380" as="targetPoint" />
          </mxGeometry>
        </mxCell>
        <mxCell id="FJ9C9FBBKWOX9R9JnYzt-0" value="" style="endArrow=classic;html=1;rounded=0;" parent="WIyWlLk6GJQsqaUBKTNV-1" edge="1">
          <mxGeometry width="50" height="50" relative="1" as="geometry">
            <mxPoint x="80" y="220" as="sourcePoint" />
            <mxPoint x="150" y="220" as="targetPoint" />
          </mxGeometry>
        </mxCell>
        <mxCell id="s3w7rKayWv1830Ssn8ZR-1" value="1.listRecruits()" style="text;html=1;align=center;verticalAlign=middle;resizable=0;points=[];autosize=1;strokeColor=none;fillColor=none;" parent="WIyWlLk6GJQsqaUBKTNV-1" vertex="1">
          <mxGeometry x="330" y="320" width="100" height="30" as="geometry" />
        </mxCell>
        <mxCell id="s3w7rKayWv1830Ssn8ZR-2" value="2.startInterface()" style="text;html=1;align=center;verticalAlign=middle;resizable=0;points=[];autosize=1;strokeColor=none;fillColor=none;" parent="WIyWlLk6GJQsqaUBKTNV-1" vertex="1">
          <mxGeometry x="275" y="255" width="110" height="30" as="geometry" />
        </mxCell>
        <mxCell id="s3w7rKayWv1830Ssn8ZR-3" value="3.selectRecruit()" style="text;html=1;align=center;verticalAlign=middle;resizable=0;points=[];autosize=1;strokeColor=none;fillColor=none;" parent="WIyWlLk6GJQsqaUBKTNV-1" vertex="1">
          <mxGeometry x="60" y="170" width="110" height="30" as="geometry" />
        </mxCell>
        <mxCell id="s3w7rKayWv1830Ssn8ZR-4" value="" style="endArrow=classic;html=1;rounded=0;" parent="WIyWlLk6GJQsqaUBKTNV-1" edge="1">
          <mxGeometry width="50" height="50" relative="1" as="geometry">
            <mxPoint x="300" y="220" as="sourcePoint" />
            <mxPoint x="370" y="220" as="targetPoint" />
          </mxGeometry>
        </mxCell>
        <mxCell id="s3w7rKayWv1830Ssn8ZR-5" value=":Recruit" style="rounded=0;whiteSpace=wrap;html=1;" parent="WIyWlLk6GJQsqaUBKTNV-1" vertex="1">
          <mxGeometry x="590" y="200" width="120" height="60" as="geometry" />
        </mxCell>
        <mxCell id="s3w7rKayWv1830Ssn8ZR-8" value="" style="endArrow=none;html=1;rounded=0;entryX=0;entryY=0.5;entryDx=0;entryDy=0;exitX=1;exitY=0.5;exitDx=0;exitDy=0;" parent="WIyWlLk6GJQsqaUBKTNV-1" source="K59HT-jmwObpSRSA2hH1-3" target="s3w7rKayWv1830Ssn8ZR-5" edge="1">
          <mxGeometry width="50" height="50" relative="1" as="geometry">
            <mxPoint x="250" y="310" as="sourcePoint" />
            <mxPoint x="300" y="260" as="targetPoint" />
          </mxGeometry>
        </mxCell>
        <mxCell id="s3w7rKayWv1830Ssn8ZR-9" value="3.1. showDetailRecruits()" style="text;html=1;align=center;verticalAlign=middle;resizable=0;points=[];autosize=1;strokeColor=none;fillColor=none;" parent="WIyWlLk6GJQsqaUBKTNV-1" vertex="1">
          <mxGeometry x="254" y="170" width="160" height="30" as="geometry" />
        </mxCell>
        <mxCell id="s3w7rKayWv1830Ssn8ZR-10" value="" style="endArrow=classic;html=1;rounded=0;" parent="WIyWlLk6GJQsqaUBKTNV-1" edge="1">
          <mxGeometry width="50" height="50" relative="1" as="geometry">
            <mxPoint x="510" y="220" as="sourcePoint" />
            <mxPoint x="580" y="220" as="targetPoint" />
          </mxGeometry>
        </mxCell>
        <mxCell id="s3w7rKayWv1830Ssn8ZR-11" value="1.1 *[For Company&#39;s recruits]: getRecruits()&lt;br&gt;3.1.1 getDetailRecruit()" style="text;html=1;align=center;verticalAlign=middle;resizable=0;points=[];autosize=1;strokeColor=none;fillColor=none;" parent="WIyWlLk6GJQsqaUBKTNV-1" vertex="1">
          <mxGeometry x="418" y="160" width="250" height="40" as="geometry" />
        </mxCell>
      </root>
    </mxGraphModel>
  </diagram>
</mxfile>
